<svg width="61" height="59" fill="none" xmlns="http://www.w3.org/2000/svg"><path d="M60.655 15.943a1.909 1.909 0 00-1.555-.803H18.44L15.36 4.6C14.154.447 11.286 0 10.11 0H1.902A1.896 1.896 0 000 1.89c0 1.042.853 1.889 1.902 1.889h8.206c.26 0 1.052 0 1.592 1.853L22.289 44.28a1.9 1.9 0 001.831 1.377h25.862c.803 0 1.52-.498 1.79-1.25l9.115-26.74a1.874 1.874 0 00-.234-1.725l.002.002zm-12.01 25.936H25.567L19.51 18.921h36.885l-7.751 22.958zm-3.774 7.607c-2.646 0-4.79 2.13-4.79 4.757 0 2.628 2.144 4.757 4.79 4.757 2.645 0 4.79-2.13 4.79-4.757 0-2.628-2.145-4.757-4.79-4.757zm-17.243 0c-2.645 0-4.79 2.13-4.79 4.757 0 2.628 2.145 4.757 4.79 4.757 2.646 0 4.79-2.13 4.79-4.757 0-2.628-2.144-4.757-4.79-4.757z" fill="#000"/></svg>